<?xml version="1.0" encoding="UTF-8" standalone="no"?>
<!-- Created with Inkscape (http://www.inkscape.org/) -->

<svg
   width="200mm"
   height="61.096996mm"
   viewBox="0 0 200 61.096996"
   version="1.1"
   id="svg382"
   sodipodi:docname="exercises1.3_11.svg"
   inkscape:export-filename="exercises1.3_6.svg"
   inkscape:export-xdpi="96"
   inkscape:export-ydpi="96"
   inkscape:version="1.2.1 (9c6d41e410, 2022-07-14, custom)"
   xmlns:inkscape="http://www.inkscape.org/namespaces/inkscape"
   xmlns:sodipodi="http://sodipodi.sourceforge.net/DTD/sodipodi-0.dtd"
   xmlns="http://www.w3.org/2000/svg"
   xmlns:svg="http://www.w3.org/2000/svg">
  <sodipodi:namedview
     id="namedview384"
     pagecolor="#ffffff"
     bordercolor="#000000"
     borderopacity="0.25"
     inkscape:showpageshadow="2"
     inkscape:pageopacity="0.0"
     inkscape:pagecheckerboard="0"
     inkscape:deskcolor="#d1d1d1"
     inkscape:document-units="mm"
     showgrid="false"
     showguides="false"
     inkscape:zoom="2"
     inkscape:cx="368.25"
     inkscape:cy="198.25"
     inkscape:window-width="1315"
     inkscape:window-height="1373"
     inkscape:window-x="8"
     inkscape:window-y="55"
     inkscape:window-maximized="1"
     inkscape:current-layer="layer1" />
  <defs
     id="defs379">
    <marker
       style="overflow:visible"
       id="TriangleStart"
       refX="0"
       refY="0"
       orient="auto-start-reverse"
       inkscape:stockid="TriangleStart"
       markerWidth="5.3244081"
       markerHeight="6.155385"
       viewBox="0 0 5.3244081 6.1553851"
       inkscape:isstock="true"
       inkscape:collect="always"
       preserveAspectRatio="xMidYMid">
      <path
         transform="scale(0.5)"
         style="fill:context-stroke;fill-rule:evenodd;stroke:context-stroke;stroke-width:1pt"
         d="M 5.77,0 -2.88,5 V -5 Z"
         id="path135" />
    </marker>
  </defs>
  <g
     inkscape:label="Layer 1"
     inkscape:groupmode="layer"
     id="layer1"
     transform="translate(-5.6423754,-100.16077)">
    <rect
       style="font-variation-settings:normal;display:none;opacity:1;vector-effect:none;fill:none;fill-opacity:1;fill-rule:evenodd;stroke:#040404;stroke-width:0.508092;stroke-linecap:square;stroke-linejoin:miter;stroke-miterlimit:4;stroke-dasharray:none;stroke-dashoffset:0;stroke-opacity:1;-inkscape-stroke:none;stop-color:#000000;stop-opacity:1"
       id="rect5544"
       width="199.49191"
       height="59.491909"
       x="5.8964214"
       y="101.43719"
       inkscape:label="span rect" />
    <rect
       style="font-variation-settings:normal;display:none;opacity:1;vector-effect:none;fill:none;fill-opacity:1;fill-rule:evenodd;stroke:#040404;stroke-width:0.359533;stroke-linecap:square;stroke-linejoin:miter;stroke-miterlimit:4;stroke-dasharray:none;stroke-dashoffset:0;stroke-opacity:1;-inkscape-stroke:none;stop-color:#000000;stop-opacity:1"
       id="rect5528"
       width="99.640465"
       height="59.640469"
       x="55.822144"
       y="101.43719"
       sodipodi:insensitive="true"
       inkscape:label="normal rect" />
    <path
       style="font-variation-settings:normal;display:inline;opacity:1;vector-effect:none;fill:none;fill-opacity:1;fill-rule:evenodd;stroke:#040404;stroke-width:0.359533;stroke-linecap:square;stroke-linejoin:miter;stroke-miterlimit:4;stroke-dasharray:none;stroke-dashoffset:0;stroke-opacity:1;-inkscape-stroke:none;stop-color:#000000;stop-opacity:1"
       d="m 55.8221,138.614 c 0.5272,0.477 1.0544,0.511 1.5816,-0.008 0.5272,-0.52 1.0544,-1.595 1.5816,-3.072 0.5272,-1.478 1.0544,-3.353 1.5816,-5.279 0.5272,-1.926 1.0544,-3.892 1.5816,-5.524 0.5272,-1.632 1.0544,-2.918 1.5816,-3.634 0.5272,-0.717 1.0544,-0.858 1.5816,-0.456 0.5272,0.403 1.0544,1.346 1.5816,2.564 0.5272,1.217 1.0544,2.699 1.5816,4.077 0.5272,1.379 1.0544,2.643 1.5816,3.509 0.5272,0.865 1.0544,1.325 1.5816,1.317 0.5272,-0.008 1.0544,-0.483 1.5816,-1.237 0.5272,-0.754 1.0544,-1.778 1.5816,-2.734 0.5272,-0.956 1.0544,-1.831 1.5816,-2.311 0.5272,-0.48 1.0544,-0.555 1.5816,-0.099 0.5272,0.456 1.0544,1.445 1.5816,2.835 0.5272,1.389 1.0544,3.173 1.5816,5.018 0.5272,1.845 1.0544,3.739 1.5816,5.307 0.5272,1.569 1.0544,2.799 1.5815,3.456 0.5272,0.657 1.0544,0.734 1.5816,0.249 0.5272,-0.485 1.0544,-1.531 1.5816,-2.878 0.5272,-1.347 1.0544,-2.986 1.5816,-4.546 0.5272,-1.559 1.0544,-3.027 1.5816,-4.102 0.5272,-1.075 1.0544,-1.748 1.5816,-1.935 0.5272,-0.187 1.0544,0.114 1.5816,0.733 0.5272,0.62 1.0544,1.55 1.5816,2.462 0.5272,0.911 1.0544,1.791 1.5816,2.318 0.5272,0.528 1.0544,0.692 1.5816,0.348 0.5272,-0.343 1.0544,-1.197 1.5818,-2.45 0.527,-1.253 1.054,-2.898 1.581,-4.618 0.528,-1.719 1.055,-3.5 1.582,-4.969 0.527,-1.47 1.054,-2.614 1.582,-3.19 0.527,-0.576 1.054,-0.575 1.581,0 0.527,0.574 1.055,1.721 1.582,3.19 0.527,1.468 1.054,3.25 1.581,4.969 0.528,1.72 1.055,3.365 1.582,4.618 0.527,1.253 1.054,2.106 1.582,2.45 0.527,0.345 1.054,0.179 1.581,-0.348 0.527,-0.526 1.055,-1.407 1.582,-2.318 0.527,-0.912 1.054,-1.842 1.581,-2.462 0.528,-0.62 1.055,-0.919 1.582,-0.733 0.527,0.186 1.054,0.861 1.582,1.935 0.527,1.074 1.054,2.543 1.581,4.102 0.527,1.56 1.055,3.199 1.582,4.546 0.527,1.348 1.054,2.392 1.581,2.878 0.528,0.486 1.055,0.407 1.582,-0.249 0.527,-0.656 1.054,-1.888 1.581,-3.456 0.528,-1.567 1.055,-3.461 1.582,-5.307 0.527,-1.845 1.054,-3.628 1.582,-5.018 0.527,-1.391 1.054,-2.378 1.581,-2.835 0.527,-0.457 1.055,-0.38 1.582,0.099 0.527,0.48 1.054,1.355 1.581,2.311 0.528,0.955 1.055,1.979 1.582,2.734 0.527,0.754 1.054,1.228 1.582,1.237 0.527,0.009 1.054,-0.452 1.581,-1.317 0.527,-0.865 1.055,-2.13 1.582,-3.509 0.527,-1.378 1.054,-2.859 1.581,-4.077 0.528,-1.218 1.055,-2.16 1.582,-2.564 0.527,-0.403 1.054,-0.26 1.582,0.456 0.527,0.715 1.054,2.003 1.581,3.634 0.527,1.631 1.055,3.598 1.582,5.524 0.527,1.926 1.054,3.8 1.581,5.279 0.528,1.478 1.055,2.551 1.582,3.072 0.527,0.52 1.054,0.485 1.582,0.008"
       id="path1176" />
    <path
       style="font-variation-settings:normal;display:inline;opacity:1;fill:none;fill-opacity:1;fill-rule:evenodd;stroke:#040404;stroke-width:0.36;stroke-linecap:square;stroke-linejoin:miter;stroke-miterlimit:4;stroke-dasharray:none;stroke-dashoffset:0;stroke-opacity:1;marker-end:url(#TriangleStart);stop-color:#000000;stop-opacity:1"
       d="M 105.642,161.078 V 101.4375"
       id="path1174" />
    <path
       style="font-variation-settings:normal;display:inline;opacity:1;vector-effect:none;fill:none;fill-opacity:1;fill-rule:evenodd;stroke:#040404;stroke-width:0.359533;stroke-linecap:square;stroke-linejoin:miter;stroke-miterlimit:4;stroke-dasharray:none;stroke-dashoffset:0;stroke-opacity:1;-inkscape-stroke:none;marker-end:url(#TriangleStart);stop-color:#000000;stop-opacity:1"
       d="m 55.8221,131.257 h 99.6405"
       id="path1130" />
    <path
       style="font-variation-settings:normal;opacity:1;vector-effect:none;fill:none;fill-opacity:1;stroke:#ff0000;stroke-width:0.349999;stroke-linecap:butt;stroke-linejoin:miter;stroke-miterlimit:4;stroke-dasharray:none;stroke-dashoffset:0;stroke-opacity:1;-inkscape-stroke:none;stop-color:#000000;stop-opacity:1"
       d="M 55.822144,129.07642 H 155.46261"
       id="path2023"
       sodipodi:nodetypes="cc" />
    <circle
       style="fill:#000000;fill-opacity:1;fill-rule:evenodd;stroke-width:0.264583"
       id="path2231"
       cx="118.81898"
       cy="129.131"
       r="0.4616583" />
  </g>
</svg>
