<?xml version="1.0" encoding="UTF-8" standalone="no"?>
<!-- Created with Inkscape (http://www.inkscape.org/) -->

<svg
   width="210mm"
   height="297mm"
   viewBox="0 0 210 297"
   version="1.1"
   id="svg1"
   inkscape:version="1.4.2 (ebf0e940, 2025-05-08)"
   sodipodi:docname="2derivative_2.1.svg"
   xmlns:inkscape="http://www.inkscape.org/namespaces/inkscape"
   xmlns:sodipodi="http://sodipodi.sourceforge.net/DTD/sodipodi-0.dtd"
   xmlns="http://www.w3.org/2000/svg"
   xmlns:svg="http://www.w3.org/2000/svg">
  <sodipodi:namedview
     id="namedview1"
     pagecolor="#ffffff"
     bordercolor="#000000"
     borderopacity="0.25"
     inkscape:showpageshadow="2"
     inkscape:pageopacity="0.0"
     inkscape:pagecheckerboard="0"
     inkscape:deskcolor="#d1d1d1"
     inkscape:document-units="mm"
     inkscape:zoom="0.59528895"
     inkscape:cx="496.39759"
     inkscape:cy="632.46596"
     inkscape:window-width="1064"
     inkscape:window-height="1094"
     inkscape:window-x="3"
     inkscape:window-y="43"
     inkscape:window-maximized="0"
     inkscape:current-layer="layer1" />
  <defs
     id="defs1">
    <marker
       style="overflow:visible"
       id="marker12"
       refX="0"
       refY="0"
       orient="auto-start-reverse"
       inkscape:stockid="Triangle arrow"
       markerWidth="1.79999995"
       markerHeight="1.79999995"
       viewBox="0 0 1 1"
       inkscape:isstock="true"
       inkscape:collect="always"
       preserveAspectRatio="xMidYMid">
      <path
         transform="scale(0.5)"
         style="fill:context-stroke;fill-rule:evenodd;stroke:context-stroke;stroke-width:1pt"
         d="M 5.77,0 -2.88,5 V -5 Z"
         id="path12" />
    </marker>
    <clipPath
       id="clipPath5122">
      <rect
         style="font-variation-settings:normal;opacity:1;vector-effect:none;fill:none;fill-opacity:1;fill-rule:evenodd;stroke:#ff0000;stroke-width:0.3;stroke-linecap:butt;stroke-linejoin:miter;stroke-miterlimit:4;stroke-dasharray:0.899999, 0.899999;stroke-dashoffset:0;stroke-opacity:1;-inkscape-stroke:none;stop-color:#000000;stop-opacity:1"
         width="150"
         height="50"
         x="14.066391"
         y="124.15119"
         id="rect3" />
    </clipPath>
    <clipPath
       id="clipPath2680">
      <rect
         style="font-variation-settings:normal;opacity:1;vector-effect:none;fill:none;fill-opacity:1;fill-rule:evenodd;stroke:#ff0000;stroke-width:0.3;stroke-linecap:butt;stroke-linejoin:miter;stroke-miterlimit:4;stroke-dasharray:0.899999, 0.899999;stroke-dashoffset:0;stroke-opacity:1;-inkscape-stroke:none;stop-color:#000000;stop-opacity:1"
         width="150"
         height="50"
         x="14.066391"
         y="124.15119"
         id="rect7" />
    </clipPath>
  </defs>
  <g
     inkscape:label="Layer 1"
     inkscape:groupmode="layer"
     id="layer1">
    <rect
       style="font-variation-settings:normal;opacity:1;vector-effect:none;fill:none;fill-opacity:1;fill-rule:evenodd;stroke:#ff0000;stroke-width:0.3;stroke-linecap:butt;stroke-linejoin:miter;stroke-miterlimit:4;stroke-dasharray:0.899999, 0.899999;stroke-dashoffset:0;stroke-opacity:1;-inkscape-stroke:none;stop-color:#000000;stop-opacity:1"
       id="rect2"
       width="150"
       height="50"
       x="30.000013"
       y="123.50018" />
    <path
       style="font-variation-settings:normal;opacity:1;vector-effect:none;fill:none;fill-opacity:1;fill-rule:evenodd;stroke:#000000;stroke-width:0.3;stroke-linecap:butt;stroke-linejoin:miter;stroke-miterlimit:4;stroke-dasharray:none;stroke-dashoffset:0;stroke-opacity:1;-inkscape-stroke:none;stop-color:#000000;stop-opacity:1"
       d="m 30.000007,148.5002 c 1.6129,-4.08 3.2258,-8.76801 4.8387,-12.34801 1.6129,-3.57999 3.2258,-5.95801 4.8387,-6.28401 1.6129,-0.325 3.2258,1.41801 4.8387,4.50202 1.6129,3.08499 3.2258,7.436 4.8387,11.379 1.6129,3.943 3.2258,7.38 4.8387,9.106 1.6129,1.725 3.2258,1.704 4.8387,0.198 1.613,-1.507 3.2259,-4.444 4.8388,-7.369 1.6129,-2.926 3.2258,-5.741 4.8387,-7.129 1.6129,-1.38901 3.2258,-1.29401 4.8387,0.297 1.6129,1.592 3.225801,4.642 4.838701,7.838 1.6129,3.195 3.2258,6.436 4.8387,8.232 1.6129,1.796 3.225798,2.073 4.838698,0.493 1.612904,-1.579 3.225804,-4.999 4.838704,-9.096 1.6129,-4.096 3.22579,-8.77701 4.83869,-12.32501 1.6129,-3.547 3.2258,-5.87101 4.8387,-6.13901 1.61289,-0.268 3.22579,1.532 4.83869,4.65202 1.6129,3.12099 3.2259,7.486 4.83881,11.417 1.6129,3.93 3.2258,7.327 4.8385,9.006 1.613,1.678 3.226,1.602 4.839,0.055 1.613,-1.547 3.226,-4.507 4.839,-7.431 1.612,-2.923 3.225,-5.712 4.838,-7.06 1.613,-1.34801 3.226,-1.20201 4.839,0.43 1.613,1.631 3.226,4.71 4.839,7.907 1.613,3.197 3.226,6.414 4.838,8.169 1.613,1.755 3.226,1.974 4.839,0.344 1.613,-1.63 3.226,-5.093 4.839,-9.207 1.613,-4.113 3.226,-8.78401 4.839,-12.29901 1.612,-3.514 3.225,-5.78201 4.838,-5.99301 1.613,-0.211 3.226,1.646 4.839,4.80102 1.613,3.15599 3.226,7.534 4.839,11.451 1.613,3.917 3.225,7.275 4.838,8.906"
       id="path11" />
    <path
       style="font-variation-settings:normal;opacity:1;vector-effect:none;fill:none;fill-opacity:1;fill-rule:evenodd;stroke:#000000;stroke-width:0.3;stroke-linecap:butt;stroke-linejoin:miter;stroke-miterlimit:4;stroke-dasharray:none;stroke-dashoffset:0;stroke-opacity:1;-inkscape-stroke:none;marker-end:url(#marker12);stop-color:#000000;stop-opacity:1"
       d="M 105,173.50001 V 123.49999"
       id="path10" />
    <path
       style="font-variation-settings:normal;opacity:1;vector-effect:none;fill:none;fill-opacity:1;fill-rule:evenodd;stroke:#000000;stroke-width:0.3;stroke-linecap:butt;stroke-linejoin:miter;stroke-miterlimit:4;stroke-dasharray:none;stroke-dashoffset:0;stroke-opacity:1;-inkscape-stroke:none;marker-end:url(#marker12);stop-color:#000000;stop-opacity:1"
       d="M 30.000015,148.50001 H 180.00001"
       id="path7" />
    <path
       style="fill:none;stroke:#ff0000;stroke-width:0.3;stroke-dasharray:none;stroke-dashoffset:0;stroke-opacity:1;paint-order:normal"
       d="M 29.850007,139.56657 H 179.85"
       id="path13" />
  </g>
</svg>
